<svg width="80" height="31" viewBox="0 0 80 31" fill="none" xmlns="http://www.w3.org/2000/svg">
<rect x="0.5" y="0.5" width="79" height="30" rx="15" fill="white" fill-opacity="0.1"/>
<rect x="0.5" y="0.5" width="79" height="30" rx="15" stroke="white"/>
<g filter="url(#filter0_i_3_76)">
<circle cx="12.8137" cy="15.5" r="5" fill="#00CE4F"/>
</g>
<circle cx="12.8137" cy="15.5" r="4.5" stroke="black"/>
<path d="M27.7203 11.1H28.9383L31.9923 19.5H30.9243L30.3003 17.784H26.3583L25.7403 19.5H24.6663L27.7203 11.1ZM26.7303 16.776H29.9283L28.3263 12.39L26.7303 16.776ZM35.2057 19.5H33.9157L31.7257 13.488H32.7997L34.5577 18.33L36.3157 13.488H37.3897L35.2057 19.5ZM42.7765 13.5H43.7845V19.5H42.7765L42.7345 18.486C42.5465 18.834 42.2865 19.116 41.9545 19.332C41.6265 19.548 41.2345 19.656 40.7785 19.656C40.3385 19.656 39.9265 19.574 39.5425 19.41C39.1585 19.242 38.8185 19.012 38.5225 18.72C38.2305 18.424 38.0025 18.084 37.8385 17.7C37.6745 17.316 37.5925 16.902 37.5925 16.458C37.5925 16.03 37.6725 15.626 37.8325 15.246C37.9925 14.866 38.2145 14.534 38.4985 14.25C38.7865 13.962 39.1185 13.738 39.4945 13.578C39.8705 13.414 40.2745 13.332 40.7065 13.332C41.1785 13.332 41.5925 13.444 41.9485 13.668C42.3045 13.888 42.5925 14.174 42.8125 14.526L42.7765 13.5ZM40.7605 18.678C41.1565 18.678 41.4985 18.582 41.7865 18.39C42.0785 18.194 42.3025 17.93 42.4585 17.598C42.6185 17.266 42.6985 16.9 42.6985 16.5C42.6985 16.092 42.6185 15.724 42.4585 15.396C42.2985 15.064 42.0725 14.802 41.7805 14.61C41.4925 14.414 41.1525 14.316 40.7605 14.316C40.3645 14.316 40.0045 14.414 39.6805 14.61C39.3565 14.806 39.0985 15.07 38.9065 15.402C38.7185 15.73 38.6245 16.096 38.6245 16.5C38.6245 16.904 38.7225 17.272 38.9185 17.604C39.1145 17.932 39.3745 18.194 39.6985 18.39C40.0225 18.582 40.3765 18.678 40.7605 18.678ZM44.8038 13.5H45.8118V19.5H44.8038V13.5ZM45.3198 12.522C45.1598 12.522 45.0258 12.47 44.9178 12.366C44.8098 12.262 44.7558 12.132 44.7558 11.976C44.7558 11.82 44.8098 11.69 44.9178 11.586C45.0258 11.482 45.1578 11.43 45.3138 11.43C45.4698 11.43 45.6018 11.482 45.7098 11.586C45.8178 11.69 45.8718 11.82 45.8718 11.976C45.8718 12.132 45.8178 12.262 45.7098 12.366C45.6058 12.47 45.4758 12.522 45.3198 12.522ZM47.1082 19.5V10.5H48.1162V19.5H47.1082ZM54.1428 13.5H55.1508V19.5H54.1428L54.1008 18.486C53.9128 18.834 53.6528 19.116 53.3208 19.332C52.9928 19.548 52.6008 19.656 52.1448 19.656C51.7048 19.656 51.2928 19.574 50.9088 19.41C50.5248 19.242 50.1848 19.012 49.8888 18.72C49.5968 18.424 49.3688 18.084 49.2048 17.7C49.0408 17.316 48.9588 16.902 48.9588 16.458C48.9588 16.03 49.0388 15.626 49.1988 15.246C49.3588 14.866 49.5808 14.534 49.8648 14.25C50.1528 13.962 50.4848 13.738 50.8608 13.578C51.2368 13.414 51.6408 13.332 52.0728 13.332C52.5448 13.332 52.9588 13.444 53.3148 13.668C53.6708 13.888 53.9588 14.174 54.1788 14.526L54.1428 13.5ZM52.1268 18.678C52.5228 18.678 52.8648 18.582 53.1528 18.39C53.4448 18.194 53.6688 17.93 53.8248 17.598C53.9848 17.266 54.0648 16.9 54.0648 16.5C54.0648 16.092 53.9848 15.724 53.8248 15.396C53.6648 15.064 53.4388 14.802 53.1468 14.61C52.8588 14.414 52.5188 14.316 52.1268 14.316C51.7308 14.316 51.3708 14.414 51.0468 14.61C50.7228 14.806 50.4648 15.07 50.2728 15.402C50.0848 15.73 49.9908 16.096 49.9908 16.5C49.9908 16.904 50.0888 17.272 50.2848 17.604C50.4808 17.932 50.7408 18.194 51.0648 18.39C51.3888 18.582 51.7428 18.678 52.1268 18.678ZM59.2763 13.332C59.8603 13.332 60.3903 13.474 60.8663 13.758C61.3463 14.042 61.7283 14.424 62.0123 14.904C62.2963 15.38 62.4383 15.91 62.4383 16.494C62.4383 16.93 62.3563 17.34 62.1923 17.724C62.0283 18.104 61.8003 18.44 61.5083 18.732C61.2203 19.02 60.8843 19.246 60.5003 19.41C60.1203 19.574 59.7123 19.656 59.2763 19.656C58.8123 19.656 58.4083 19.548 58.0643 19.332C57.7243 19.112 57.4523 18.826 57.2483 18.474V19.5H56.2403V10.5H57.2483V14.514C57.4523 14.162 57.7243 13.878 58.0643 13.662C58.4083 13.442 58.8123 13.332 59.2763 13.332ZM59.2643 18.672C59.6603 18.672 60.0203 18.574 60.3443 18.378C60.6683 18.182 60.9263 17.92 61.1183 17.592C61.3103 17.26 61.4063 16.894 61.4063 16.494C61.4063 16.086 61.3083 15.718 61.1123 15.39C60.9163 15.058 60.6563 14.796 60.3323 14.604C60.0083 14.408 59.6523 14.31 59.2643 14.31C58.8723 14.31 58.5303 14.408 58.2383 14.604C57.9503 14.8 57.7263 15.064 57.5663 15.396C57.4103 15.728 57.3323 16.094 57.3323 16.494C57.3323 16.898 57.4103 17.266 57.5663 17.598C57.7263 17.926 57.9523 18.188 58.2443 18.384C58.5363 18.576 58.8763 18.672 59.2643 18.672ZM63.1971 19.5V10.5H64.2051V19.5H63.1971ZM68.0477 19.656C67.4957 19.656 66.9917 19.514 66.5357 19.23C66.0837 18.946 65.7217 18.566 65.4497 18.09C65.1817 17.61 65.0477 17.08 65.0477 16.5C65.0477 16.06 65.1257 15.65 65.2817 15.27C65.4377 14.886 65.6517 14.55 65.9237 14.262C66.1997 13.97 66.5197 13.742 66.8837 13.578C67.2477 13.414 67.6357 13.332 68.0477 13.332C68.4997 13.332 68.9137 13.424 69.2897 13.608C69.6697 13.788 69.9937 14.04 70.2617 14.364C70.5337 14.688 70.7357 15.064 70.8677 15.492C71.0037 15.92 71.0537 16.378 71.0177 16.866H66.1217C66.1697 17.206 66.2817 17.51 66.4577 17.778C66.6337 18.042 66.8577 18.252 67.1297 18.408C67.4057 18.564 67.7117 18.644 68.0477 18.648C68.4077 18.648 68.7337 18.556 69.0257 18.372C69.3177 18.184 69.5537 17.928 69.7337 17.604L70.7597 17.844C70.5197 18.376 70.1577 18.812 69.6737 19.152C69.1897 19.488 68.6477 19.656 68.0477 19.656ZM66.0917 16.074H70.0037C69.9717 15.738 69.8637 15.432 69.6797 15.156C69.4957 14.876 69.2617 14.652 68.9777 14.484C68.6937 14.316 68.3837 14.232 68.0477 14.232C67.7117 14.232 67.4037 14.314 67.1237 14.478C66.8437 14.642 66.6117 14.864 66.4277 15.144C66.2477 15.42 66.1357 15.73 66.0917 16.074Z" fill="#171717"/>
<defs>
<filter id="filter0_i_3_76" x="7.81372" y="10.5" width="11" height="11" filterUnits="userSpaceOnUse" color-interpolation-filters="sRGB">
<feFlood flood-opacity="0" result="BackgroundImageFix"/>
<feBlend mode="normal" in="SourceGraphic" in2="BackgroundImageFix" result="shape"/>
<feColorMatrix in="SourceAlpha" type="matrix" values="0 0 0 0 0 0 0 0 0 0 0 0 0 0 0 0 0 0 127 0" result="hardAlpha"/>
<feMorphology radius="1" operator="erode" in="SourceAlpha" result="effect1_innerShadow_3_76"/>
<feOffset dx="1" dy="1"/>
<feGaussianBlur stdDeviation="2.5"/>
<feComposite in2="hardAlpha" operator="arithmetic" k2="-1" k3="1"/>
<feColorMatrix type="matrix" values="0 0 0 0 1 0 0 0 0 1 0 0 0 0 1 0 0 0 1 0"/>
<feBlend mode="normal" in2="shape" result="effect1_innerShadow_3_76"/>
</filter>
</defs>
</svg>
