<svg width="88" height="39" viewBox="0 0 88 39" fill="none" xmlns="http://www.w3.org/2000/svg">
<g filter="url(#filter0_d_3_76)">
<rect x="4" width="80" height="31" rx="15.5" fill="white" fill-opacity="0.1" shape-rendering="crispEdges"/>
<rect x="4.5" y="0.5" width="79" height="30" rx="15" stroke="white" shape-rendering="crispEdges"/>
<g filter="url(#filter1_i_3_76)">
<circle cx="16.8137" cy="15.5" r="5" fill="#00CE4F"/>
</g>
<circle cx="16.8137" cy="15.5" r="4.5" stroke="black"/>
<path d="M31.7203 11.1H32.9383L35.9923 19.5H34.9243L34.3003 17.784H30.3583L29.7403 19.5H28.6663L31.7203 11.1ZM30.7303 16.776H33.9283L32.3263 12.39L30.7303 16.776ZM39.2057 19.5H37.9157L35.7257 13.488H36.7997L38.5577 18.33L40.3157 13.488H41.3897L39.2057 19.5ZM46.7765 13.5H47.7845V19.5H46.7765L46.7345 18.486C46.5465 18.834 46.2865 19.116 45.9545 19.332C45.6265 19.548 45.2345 19.656 44.7785 19.656C44.3385 19.656 43.9265 19.574 43.5425 19.41C43.1585 19.242 42.8185 19.012 42.5225 18.72C42.2305 18.424 42.0025 18.084 41.8385 17.7C41.6745 17.316 41.5925 16.902 41.5925 16.458C41.5925 16.03 41.6725 15.626 41.8325 15.246C41.9925 14.866 42.2145 14.534 42.4985 14.25C42.7865 13.962 43.1185 13.738 43.4945 13.578C43.8705 13.414 44.2745 13.332 44.7065 13.332C45.1785 13.332 45.5925 13.444 45.9485 13.668C46.3045 13.888 46.5925 14.174 46.8125 14.526L46.7765 13.5ZM44.7605 18.678C45.1565 18.678 45.4985 18.582 45.7865 18.39C46.0785 18.194 46.3025 17.93 46.4585 17.598C46.6185 17.266 46.6985 16.9 46.6985 16.5C46.6985 16.092 46.6185 15.724 46.4585 15.396C46.2985 15.064 46.0725 14.802 45.7805 14.61C45.4925 14.414 45.1525 14.316 44.7605 14.316C44.3645 14.316 44.0045 14.414 43.6805 14.61C43.3565 14.806 43.0985 15.07 42.9065 15.402C42.7185 15.73 42.6245 16.096 42.6245 16.5C42.6245 16.904 42.7225 17.272 42.9185 17.604C43.1145 17.932 43.3745 18.194 43.6985 18.39C44.0225 18.582 44.3765 18.678 44.7605 18.678ZM48.8038 13.5H49.8118V19.5H48.8038V13.5ZM49.3198 12.522C49.1598 12.522 49.0258 12.47 48.9178 12.366C48.8098 12.262 48.7558 12.132 48.7558 11.976C48.7558 11.82 48.8098 11.69 48.9178 11.586C49.0258 11.482 49.1578 11.43 49.3138 11.43C49.4698 11.43 49.6018 11.482 49.7098 11.586C49.8178 11.69 49.8718 11.82 49.8718 11.976C49.8718 12.132 49.8178 12.262 49.7098 12.366C49.6058 12.47 49.4758 12.522 49.3198 12.522ZM51.1082 19.5V10.5H52.1162V19.5H51.1082ZM58.1428 13.5H59.1508V19.5H58.1428L58.1008 18.486C57.9128 18.834 57.6528 19.116 57.3208 19.332C56.9928 19.548 56.6008 19.656 56.1448 19.656C55.7048 19.656 55.2928 19.574 54.9088 19.41C54.5248 19.242 54.1848 19.012 53.8888 18.72C53.5968 18.424 53.3688 18.084 53.2048 17.7C53.0408 17.316 52.9588 16.902 52.9588 16.458C52.9588 16.03 53.0388 15.626 53.1988 15.246C53.3588 14.866 53.5808 14.534 53.8648 14.25C54.1528 13.962 54.4848 13.738 54.8608 13.578C55.2368 13.414 55.6408 13.332 56.0728 13.332C56.5448 13.332 56.9588 13.444 57.3148 13.668C57.6708 13.888 57.9588 14.174 58.1788 14.526L58.1428 13.5ZM56.1268 18.678C56.5228 18.678 56.8648 18.582 57.1528 18.39C57.4448 18.194 57.6688 17.93 57.8248 17.598C57.9848 17.266 58.0648 16.9 58.0648 16.5C58.0648 16.092 57.9848 15.724 57.8248 15.396C57.6648 15.064 57.4388 14.802 57.1468 14.61C56.8588 14.414 56.5188 14.316 56.1268 14.316C55.7308 14.316 55.3708 14.414 55.0468 14.61C54.7228 14.806 54.4648 15.07 54.2728 15.402C54.0848 15.73 53.9908 16.096 53.9908 16.5C53.9908 16.904 54.0888 17.272 54.2848 17.604C54.4808 17.932 54.7408 18.194 55.0648 18.39C55.3888 18.582 55.7428 18.678 56.1268 18.678ZM63.2763 13.332C63.8603 13.332 64.3903 13.474 64.8663 13.758C65.3463 14.042 65.7283 14.424 66.0123 14.904C66.2963 15.38 66.4383 15.91 66.4383 16.494C66.4383 16.93 66.3563 17.34 66.1923 17.724C66.0283 18.104 65.8003 18.44 65.5083 18.732C65.2203 19.02 64.8843 19.246 64.5003 19.41C64.1203 19.574 63.7123 19.656 63.2763 19.656C62.8123 19.656 62.4083 19.548 62.0643 19.332C61.7243 19.112 61.4523 18.826 61.2483 18.474V19.5H60.2403V10.5H61.2483V14.514C61.4523 14.162 61.7243 13.878 62.0643 13.662C62.4083 13.442 62.8123 13.332 63.2763 13.332ZM63.2643 18.672C63.6603 18.672 64.0203 18.574 64.3443 18.378C64.6683 18.182 64.9263 17.92 65.1183 17.592C65.3103 17.26 65.4063 16.894 65.4063 16.494C65.4063 16.086 65.3083 15.718 65.1123 15.39C64.9163 15.058 64.6563 14.796 64.3323 14.604C64.0083 14.408 63.6523 14.31 63.2643 14.31C62.8723 14.31 62.5303 14.408 62.2383 14.604C61.9503 14.8 61.7263 15.064 61.5663 15.396C61.4103 15.728 61.3323 16.094 61.3323 16.494C61.3323 16.898 61.4103 17.266 61.5663 17.598C61.7263 17.926 61.9523 18.188 62.2443 18.384C62.5363 18.576 62.8763 18.672 63.2643 18.672ZM67.1971 19.5V10.5H68.2051V19.5H67.1971ZM72.0477 19.656C71.4957 19.656 70.9917 19.514 70.5357 19.23C70.0837 18.946 69.7217 18.566 69.4497 18.09C69.1817 17.61 69.0477 17.08 69.0477 16.5C69.0477 16.06 69.1257 15.65 69.2817 15.27C69.4377 14.886 69.6517 14.55 69.9237 14.262C70.1997 13.97 70.5197 13.742 70.8837 13.578C71.2477 13.414 71.6357 13.332 72.0477 13.332C72.4997 13.332 72.9137 13.424 73.2897 13.608C73.6697 13.788 73.9937 14.04 74.2617 14.364C74.5337 14.688 74.7357 15.064 74.8677 15.492C75.0037 15.92 75.0537 16.378 75.0177 16.866H70.1217C70.1697 17.206 70.2817 17.51 70.4577 17.778C70.6337 18.042 70.8577 18.252 71.1297 18.408C71.4057 18.564 71.7117 18.644 72.0477 18.648C72.4077 18.648 72.7337 18.556 73.0257 18.372C73.3177 18.184 73.5537 17.928 73.7337 17.604L74.7597 17.844C74.5197 18.376 74.1577 18.812 73.6737 19.152C73.1897 19.488 72.6477 19.656 72.0477 19.656ZM70.0917 16.074H74.0037C73.9717 15.738 73.8637 15.432 73.6797 15.156C73.4957 14.876 73.2617 14.652 72.9777 14.484C72.6937 14.316 72.3837 14.232 72.0477 14.232C71.7117 14.232 71.4037 14.314 71.1237 14.478C70.8437 14.642 70.6117 14.864 70.4277 15.144C70.2477 15.42 70.1357 15.73 70.0917 16.074Z" fill="#171717"/>
</g>
<defs>
<filter id="filter0_d_3_76" x="0" y="0" width="88" height="39" filterUnits="userSpaceOnUse" color-interpolation-filters="sRGB">
<feFlood flood-opacity="0" result="BackgroundImageFix"/>
<feColorMatrix in="SourceAlpha" type="matrix" values="0 0 0 0 0 0 0 0 0 0 0 0 0 0 0 0 0 0 127 0" result="hardAlpha"/>
<feOffset dy="4"/>
<feGaussianBlur stdDeviation="2"/>
<feComposite in2="hardAlpha" operator="out"/>
<feColorMatrix type="matrix" values="0 0 0 0 0 0 0 0 0 0 0 0 0 0 0 0 0 0 0.25 0"/>
<feBlend mode="normal" in2="BackgroundImageFix" result="effect1_dropShadow_3_76"/>
<feBlend mode="normal" in="SourceGraphic" in2="effect1_dropShadow_3_76" result="shape"/>
</filter>
<filter id="filter1_i_3_76" x="11.8137" y="10.5" width="11" height="11" filterUnits="userSpaceOnUse" color-interpolation-filters="sRGB">
<feFlood flood-opacity="0" result="BackgroundImageFix"/>
<feBlend mode="normal" in="SourceGraphic" in2="BackgroundImageFix" result="shape"/>
<feColorMatrix in="SourceAlpha" type="matrix" values="0 0 0 0 0 0 0 0 0 0 0 0 0 0 0 0 0 0 127 0" result="hardAlpha"/>
<feMorphology radius="1" operator="erode" in="SourceAlpha" result="effect1_innerShadow_3_76"/>
<feOffset dx="1" dy="1"/>
<feGaussianBlur stdDeviation="2.5"/>
<feComposite in2="hardAlpha" operator="arithmetic" k2="-1" k3="1"/>
<feColorMatrix type="matrix" values="0 0 0 0 1 0 0 0 0 1 0 0 0 0 1 0 0 0 1 0"/>
<feBlend mode="normal" in2="shape" result="effect1_innerShadow_3_76"/>
</filter>
</defs>
</svg>
