<svg width="1440" height="841" viewBox="0 0 1440 841" fill="none" xmlns="http://www.w3.org/2000/svg">
<path d="M1461 841C967 841 473 841 -21 841C-21 431.757 310.757 100 720 100C1129.24 100 1461 431.757 1461 841Z" fill="#FEB273"/>
<path d="M1461 841C967 841 473 841 -21 841C-21 411.875 310.757 64 720 64C1129.24 64 1461 411.875 1461 841Z" fill="#FEB273" fill-opacity="0.5"/>
<path d="M1461 841C967 841 473 841 -21 841C-21 393.649 310.757 31 720 31C1129.24 31 1461 393.649 1461 841Z" fill="#FEB273" fill-opacity="0.3"/>
<path d="M1461 841C967 841 473 841 -21 841C-21 376.529 310.757 0 720 0C1129.24 0 1461 376.529 1461 841Z" fill="#FEB273" fill-opacity="0.1"/>
</svg>
